<svg width="76" height="56" viewBox="0 0 76 56" fill="none" xmlns="http://www.w3.org/2000/svg">
<path d="M16.5831 12.876C16.6082 12.7998 16.7215 12.7236 16.9228 12.6474C17.0737 12.5966 17.2625 12.5712 17.4889 12.5712C17.5644 12.5712 17.6399 12.5839 17.7154 12.6093C17.816 12.6093 17.9041 12.6474 17.9796 12.7236C18.0551 12.7744 18.0803 12.8379 18.0551 12.9141C17.5015 14.0569 17.0612 15.2633 16.734 16.5331C16.734 16.5077 16.734 16.495 16.734 16.495C16.7592 16.4696 16.7718 16.4442 16.7718 16.4188C16.646 16.8759 16.5453 17.3331 16.4698 17.7902C16.3188 18.6029 16.2308 19.4283 16.2056 20.2663C16.1553 21.1298 16.2056 21.7647 16.3566 22.1711C16.3566 22.1457 16.344 22.1203 16.3188 22.0949C16.4195 22.2981 16.5453 22.4758 16.6963 22.6282C16.646 22.5774 16.6208 22.552 16.6208 22.552C16.6711 22.5774 16.7215 22.6155 16.7718 22.6663C16.7969 22.6663 16.8095 22.6663 16.8095 22.6663V22.7044C16.7592 22.6536 16.734 22.6409 16.734 22.6663C16.734 22.6663 16.7718 22.6663 16.8473 22.6663C16.8473 22.6663 16.8473 22.679 16.8473 22.7044C16.8473 22.7044 16.8599 22.7044 16.885 22.7044C16.8599 22.7044 16.8221 22.6917 16.7718 22.6663C16.8221 22.6663 16.8473 22.6663 16.8473 22.6663C16.8473 22.6663 16.8095 22.6663 16.734 22.6663H16.6963H16.6208C16.646 22.6663 16.6711 22.6663 16.6963 22.6663H16.6208H16.5831C16.5076 22.6917 16.4698 22.7044 16.4698 22.7044C16.4698 22.7044 16.495 22.6917 16.5453 22.6663L16.4698 22.7044C16.495 22.7044 16.5327 22.6917 16.5831 22.6663C16.6082 22.6409 16.6208 22.6282 16.6208 22.6282L16.5831 22.6663C16.6082 22.6409 16.6334 22.6155 16.6585 22.5901C16.7844 22.5139 16.9102 22.3996 17.036 22.2473C17.0108 22.2727 16.9857 22.2981 16.9605 22.3235C17.1115 22.1711 17.3757 21.7901 17.7531 21.1806C18.0803 20.6473 18.3571 20.2409 18.5835 19.9616C18.9106 19.5806 19.2378 19.2886 19.5649 19.0854C20.043 18.7807 20.5337 18.6029 21.0369 18.5521C21.9679 18.3997 22.7732 18.5648 23.4526 19.0473C23.8048 19.3013 24.2326 19.733 24.7359 20.3425C25.2391 20.952 25.6292 21.3584 25.906 21.5616C25.8556 21.5362 25.8179 21.5235 25.7927 21.5235C25.994 21.6758 26.1828 21.7901 26.3589 21.8663C26.3589 21.8917 26.3715 21.9171 26.3966 21.9425C26.4218 21.9425 26.447 21.9425 26.4721 21.9425H26.4344C26.4344 21.9425 26.447 21.9425 26.4721 21.9425C26.4973 21.9425 26.5099 21.9425 26.5099 21.9425C26.5854 21.9679 26.6231 21.9933 26.6231 22.0187C26.6483 22.0187 26.6609 22.0187 26.6609 22.0187C26.686 22.0187 26.6986 22.0187 26.6986 22.0187H26.6609C26.686 22.0187 26.7238 22.0187 26.7741 22.0187C26.7741 22.0187 26.7867 22.0314 26.8118 22.0568C26.837 22.0568 26.8496 22.0568 26.8496 22.0568C26.8496 22.0568 26.8118 22.0441 26.7363 22.0187C26.7615 22.0187 26.7867 22.0187 26.8118 22.0187H26.8873L26.7363 22.0568V22.0187C26.7615 22.0187 26.7741 22.0187 26.7741 22.0187C26.7992 22.0187 26.8118 22.0187 26.8118 22.0187C26.837 22.0187 26.8622 22.0187 26.8873 22.0187C26.8622 22.0187 26.8118 22.0314 26.7363 22.0568C26.7615 22.0568 26.7867 22.0441 26.8118 22.0187L26.7741 22.0568C26.7992 22.0314 26.8244 22.0187 26.8496 22.0187C26.8999 22.0187 26.9251 22.006 26.9251 21.9806C26.9251 21.9806 26.9376 21.9806 26.9628 21.9806C26.9125 22.006 26.8873 22.0187 26.8873 22.0187C26.8873 22.0187 26.9251 22.006 27.0006 21.9806C27.1012 21.9298 27.1767 21.8917 27.227 21.8663H27.1515C27.1767 21.8663 27.1893 21.8663 27.1893 21.8663C27.2144 21.8409 27.227 21.8282 27.227 21.8282C27.2522 21.8028 27.2648 21.7901 27.2648 21.7901C27.3151 21.7647 27.3654 21.7266 27.4157 21.6758C27.4912 21.5997 27.5793 21.5108 27.68 21.4092C27.68 21.4346 27.6674 21.46 27.6422 21.4854C27.6422 21.4854 27.6296 21.4854 27.6045 21.4854C27.9316 21.1298 28.1455 20.7362 28.2461 20.3044C28.2461 20.3044 28.2461 20.3171 28.2461 20.3425C28.2461 20.3425 28.2461 20.3552 28.2461 20.3806C28.3971 19.7711 28.3342 19.1108 28.0574 18.3997C28.0574 18.3997 28.07 18.4251 28.0951 18.4759C27.768 17.6886 27.227 16.9775 26.4721 16.3426C26.5225 16.368 26.5602 16.3934 26.5854 16.4188C26.3589 16.2156 26.0947 16.0124 25.7927 15.8093C25.5411 15.6315 25.0127 15.3013 24.2075 14.8188C23.4022 14.3109 22.7983 13.8918 22.3957 13.5617C21.2634 12.5966 20.5966 11.5681 20.3953 10.476C20.1688 9.30779 20.4582 8.15225 21.2634 7.00941C21.9931 6.01895 23.0374 5.23166 24.3962 4.64754C25.0001 4.39358 25.6543 4.17771 26.3589 3.99994C26.9628 3.84756 27.4535 3.74597 27.8309 3.69518C28.611 3.5682 29.391 3.49201 30.1711 3.46661C31.3789 3.46661 32.3854 3.59359 33.1907 3.84756C34.1469 4.15231 34.7633 4.63485 35.0401 5.29515C35.3673 6.05705 35.2792 6.95862 34.7759 7.99987C34.2978 9.04113 33.5178 10.0189 32.4358 10.9332C32.3351 11.0093 32.1841 11.0601 31.9828 11.0855C31.8067 11.1363 31.618 11.149 31.4167 11.1236C31.2405 11.0982 31.1273 11.0347 31.077 10.9332C31.0015 10.857 31.0141 10.7808 31.1147 10.7046C31.4922 10.3998 31.8444 10.057 32.1716 9.67604C32.1716 9.70143 32.159 9.72683 32.1338 9.75223C32.1086 9.75223 32.0961 9.75223 32.0961 9.75223C32.9013 8.86335 33.4171 7.96178 33.6436 7.04751C33.6436 7.0729 33.6436 7.0983 33.6436 7.1237C33.7946 6.51418 33.782 5.96816 33.6058 5.48563C33.6058 5.51102 33.6184 5.53642 33.6436 5.56182C33.5178 5.28246 33.3291 5.04119 33.0774 4.83802C33.1277 4.86341 33.1529 4.87611 33.1529 4.87611C33.1026 4.82532 33.0397 4.78723 32.9642 4.76183C32.8635 4.66024 32.7377 4.57136 32.5867 4.49517C32.5867 4.49517 32.5742 4.49517 32.549 4.49517C32.5238 4.49517 32.5113 4.49517 32.5113 4.49517H32.5867C32.5364 4.49517 32.4987 4.48247 32.4735 4.45707C32.4232 4.43168 32.3477 4.40628 32.247 4.38088C32.1464 4.35549 32.0583 4.33009 31.9828 4.30469C31.9828 4.30469 31.9577 4.30469 31.9073 4.30469C31.8822 4.2793 31.8696 4.2666 31.8696 4.2666L31.9828 4.30469C31.9828 4.30469 31.9702 4.30469 31.9451 4.30469C31.9451 4.30469 31.9325 4.30469 31.9073 4.30469C31.8822 4.2793 31.8696 4.2666 31.8696 4.2666C31.7186 4.2412 31.5425 4.21581 31.3412 4.19041C31.316 4.16501 31.2783 4.15231 31.2279 4.15231H31.1147C31.0895 4.15231 31.0644 4.15231 31.0392 4.15231C31.0141 4.15231 30.9889 4.15231 30.9637 4.15231C30.7373 4.12692 30.5611 4.11422 30.4353 4.11422C30.385 4.11422 30.2969 4.11422 30.1711 4.11422H30.0579H30.1333H30.2088C30.1837 4.11422 30.1585 4.11422 30.1333 4.11422C30.1082 4.11422 30.083 4.11422 30.0579 4.11422C29.8314 4.11422 29.6678 4.12692 29.5672 4.15231C29.2904 4.15231 28.9758 4.17771 28.6236 4.2285L28.7745 4.19041C28.7745 4.19041 28.762 4.19041 28.7368 4.19041C28.7368 4.19041 28.7242 4.19041 28.6991 4.19041C28.6739 4.21581 28.6487 4.2285 28.6236 4.2285C28.6236 4.2285 28.611 4.2285 28.5858 4.2285C28.5103 4.2285 28.4474 4.2412 28.3971 4.2666C28.3216 4.2666 28.2084 4.2793 28.0574 4.30469C27.9064 4.33009 27.768 4.35549 27.6422 4.38088C27.5416 4.40628 27.4032 4.44437 27.227 4.49517C27.227 4.49517 27.2144 4.49517 27.1893 4.49517C27.1641 4.49517 27.1389 4.49517 27.1138 4.49517H27.1515C27.1264 4.49517 27.0635 4.50786 26.9628 4.53326C26.686 4.60945 26.4218 4.68564 26.1702 4.76183C26.0192 4.81262 25.8934 4.86341 25.7927 4.91421C25.7676 4.91421 25.7298 4.92691 25.6795 4.9523C25.6543 4.9523 25.6292 4.965 25.604 4.9904C25.5788 4.9904 25.5663 4.9904 25.5663 4.9904C25.6166 4.965 25.6417 4.9523 25.6417 4.9523C25.6166 4.9523 25.5914 4.965 25.5663 4.9904C25.5411 4.9904 25.5285 4.9904 25.5285 4.9904C25.302 5.09198 25.063 5.20627 24.8114 5.33325C24.7107 5.38404 24.5849 5.44753 24.4339 5.52372C24.3584 5.57451 24.2955 5.61261 24.2452 5.63801H24.2829H24.3207C24.2955 5.63801 24.2829 5.63801 24.2829 5.63801C24.2326 5.6634 24.1949 5.6888 24.1697 5.71419C23.7419 5.99356 23.3519 6.32371 22.9996 6.70466C23.0248 6.70466 23.0374 6.69196 23.0374 6.66656C23.0625 6.64116 23.0751 6.62846 23.0751 6.62846C22.4964 7.28877 22.1063 8.01257 21.905 8.79986C21.905 8.77446 21.905 8.76177 21.905 8.76177C21.9302 8.73637 21.9428 8.72367 21.9428 8.72367C21.7415 9.53636 21.7918 10.3236 22.0938 11.0855C22.0686 11.0601 22.056 11.0347 22.056 11.0093C22.358 11.7712 22.899 12.4823 23.679 13.1426C23.6287 13.1173 23.6035 13.0919 23.6035 13.0665C23.7042 13.168 23.83 13.2696 23.981 13.3712C24.3333 13.6506 24.9246 14.0569 25.755 14.5902C26.6105 15.0982 27.2396 15.5172 27.6422 15.8474C28.9004 16.8632 29.6175 17.9807 29.7936 19.1997C29.8691 19.8346 29.7433 20.4441 29.4162 21.0282C29.1142 21.6124 28.6739 22.0441 28.0951 22.3235C27.2899 22.7044 26.4595 22.7679 25.604 22.5139C25.1762 22.3869 24.7485 22.1076 24.3207 21.6758C24.0942 21.4981 23.7797 21.1552 23.3771 20.6473C22.9745 20.1394 22.6348 19.7711 22.358 19.5425C22.4083 19.5933 22.4335 19.6187 22.4335 19.6187C22.2573 19.4664 22.0686 19.3394 21.8673 19.2378C21.8673 19.2378 21.8547 19.2378 21.8296 19.2378C21.8296 19.2124 21.817 19.1997 21.7918 19.1997H21.8296C21.8296 19.1997 21.7918 19.187 21.7163 19.1616C21.6408 19.1362 21.5905 19.1235 21.5653 19.1235H21.6408C21.6157 19.1235 21.5905 19.1235 21.5653 19.1235C21.5402 19.1235 21.515 19.1235 21.4898 19.1235C21.4898 19.0981 21.4773 19.0854 21.4521 19.0854H21.5276C21.4521 19.0854 21.4144 19.0854 21.4144 19.0854H21.3766H21.5276H21.4521H21.4144L21.3389 19.1235L21.4898 19.0854H21.4521C21.4269 19.0854 21.4144 19.0854 21.4144 19.0854C21.3892 19.0854 21.364 19.0981 21.3389 19.1235C21.3389 19.1235 21.3263 19.1235 21.3011 19.1235C21.3766 19.0981 21.4144 19.0854 21.4144 19.0854L21.3766 19.1235H21.3389C21.3137 19.1235 21.2382 19.1489 21.1124 19.1997C21.1627 19.1743 21.1879 19.1616 21.1879 19.1616C21.1879 19.1616 21.1753 19.1743 21.1501 19.1997C21.0998 19.1997 21.0621 19.2124 21.0369 19.2378C20.9614 19.2632 20.8985 19.3013 20.8482 19.3521C20.823 19.3521 20.8104 19.3521 20.8104 19.3521C20.7853 19.3775 20.7601 19.3902 20.735 19.3902C20.5085 19.5679 20.282 19.7838 20.0556 20.0378C20.0556 20.0124 20.0681 19.9997 20.0933 19.9997C20.1185 19.9743 20.131 19.9489 20.131 19.9235C19.8794 20.2283 19.5271 20.7362 19.0742 21.4473C18.6464 22.133 18.2816 22.5901 17.9796 22.8187C17.7028 23.0219 17.3757 23.1615 16.9983 23.2377C16.5453 23.3393 16.1301 23.3139 15.7527 23.1615C15.5262 23.0853 15.3375 22.9584 15.1865 22.7806C15.0607 22.6536 14.96 22.4758 14.8846 22.2473C14.7587 21.9171 14.6958 21.5362 14.6958 21.1044C14.6958 20.6219 14.721 20.0632 14.7713 19.4283C14.9978 17.1172 15.6017 14.9331 16.5831 12.876Z" fill="black"/>
<path d="M43.1573 17.2569C43.1824 17.2823 43.1824 17.3077 43.1573 17.3331C43.1321 17.3331 43.1069 17.3204 43.0818 17.295C43.0063 17.295 42.8553 17.2696 42.6289 17.2188C42.4527 17.168 42.2766 17.0918 42.1004 16.9902C41.9243 16.914 41.8236 16.8632 41.7985 16.8378C41.6727 16.6601 41.5343 16.5077 41.3833 16.3807C41.3078 16.3299 41.2323 16.2791 41.1568 16.2283C41.1317 16.2029 41.0939 16.1775 41.0436 16.1521C34.2999 23.1107 34.2873 23.1107 41.0058 16.1521C41.0058 16.1521 41.0184 16.1521 41.0436 16.1521C41.0436 16.1521 41.0562 16.1648 41.0813 16.1902C41.0813 16.1902 41.1065 16.1902 41.1568 16.1902C41.1568 16.1902 41.1694 16.2029 41.1946 16.2283C41.2449 16.2283 41.2952 16.241 41.3455 16.2664C41.3455 16.2664 41.3581 16.2664 41.3833 16.2664C41.3581 16.2664 41.3204 16.2537 41.27 16.2283C41.27 16.2283 41.2449 16.2283 41.1946 16.2283C41.1694 16.2283 41.1317 16.2283 41.0813 16.2283C41.0058 16.2283 40.9303 16.2283 40.8549 16.2283C40.2006 16.3045 39.6848 16.6728 39.3073 17.3331C38.955 17.9172 38.8292 18.4632 38.9299 18.9711C38.9551 19.0727 38.9928 19.1616 39.0431 19.2378C39.0934 19.2886 39.1312 19.3394 39.1564 19.3902C39.1815 19.4156 39.1941 19.4283 39.1941 19.4283L39.1564 19.3902L38.9676 19.314C38.8418 19.2378 38.6908 19.187 38.5147 19.1616H38.477V19.1235L38.5147 19.1616C38.5902 19.1616 38.6657 19.1616 38.7412 19.1616C38.8921 19.1362 39.0557 19.0981 39.2318 19.0473C40.0371 18.8187 40.5403 18.3362 40.7416 17.5997C40.8926 16.9648 40.8423 16.2664 40.5906 15.5045C40.339 14.7934 39.9112 14.2347 39.3073 13.8284C39.257 13.803 39.2067 13.7776 39.1564 13.7522C39.1312 13.7268 39.106 13.7014 39.0809 13.676L39.1186 13.7141C39.0934 13.6887 39.0683 13.676 39.0431 13.676C39.018 13.6506 39.0054 13.6379 39.0054 13.6379C39.0054 13.6379 38.9802 13.6252 38.9299 13.5998L39.0054 13.6379C38.9551 13.6125 38.9047 13.5871 38.8544 13.5617L38.9299 13.5998C38.9299 13.5998 38.9173 13.5998 38.8921 13.5998C38.867 13.5998 38.8167 13.5871 38.7412 13.5617C38.716 13.5617 38.6908 13.5617 38.6657 13.5617C38.6657 13.5617 38.6531 13.5617 38.6279 13.5617C38.5776 13.5363 38.5399 13.5236 38.5147 13.5236C38.414 13.5236 38.3386 13.5236 38.2882 13.5236C37.5585 13.4982 36.8288 13.676 36.099 14.0569C35.3693 14.4379 34.778 14.9712 34.3251 15.6569C33.8973 16.3426 33.6582 17.0918 33.6079 17.9045C33.5576 18.7172 33.696 19.5045 34.0231 20.2663C34.3502 21.0028 34.8157 21.6124 35.4196 22.0949C35.5455 22.1965 35.6964 22.2854 35.8726 22.3616V22.3996C35.8726 22.3996 35.8852 22.3996 35.9103 22.3996C35.9355 22.425 35.9607 22.4504 35.9858 22.4758C36.011 22.4758 36.0236 22.4758 36.0236 22.4758C36.0487 22.4758 36.0739 22.4885 36.099 22.5139L36.0613 22.4758C36.0613 22.4758 36.0739 22.4885 36.099 22.5139C36.1242 22.5139 36.1368 22.5266 36.1368 22.552C36.162 22.552 36.1745 22.552 36.1745 22.552C36.1997 22.552 36.2123 22.552 36.2123 22.552H36.1745L36.099 22.5139C36.1242 22.5139 36.1745 22.5266 36.25 22.552H36.2123H36.1368C36.1368 22.552 36.162 22.552 36.2123 22.552C36.2123 22.552 36.2249 22.5647 36.25 22.5901C36.2752 22.5901 36.2878 22.5901 36.2878 22.5901L36.25 22.552H36.2123C36.2374 22.552 36.25 22.5647 36.25 22.5901C36.2752 22.5901 36.3004 22.5901 36.3255 22.5901C36.3758 22.5901 36.4262 22.6028 36.4765 22.6282H36.6652C36.7155 22.6536 36.791 22.6663 36.8917 22.6663C37.0678 22.6917 37.244 22.7044 37.4201 22.7044C37.7472 22.7044 38.0995 22.6663 38.477 22.5901C39.9867 22.3615 41.3078 21.7393 42.4401 20.7235C43.5221 19.7584 44.3399 18.514 44.8935 16.9902C45.3968 15.5934 45.6107 14.1077 45.5352 12.5331C45.4597 10.9586 45.1074 9.47287 44.4783 8.07606C43.8493 6.65386 42.956 5.38404 41.7985 4.2666C41.27 3.75867 40.6913 3.30153 40.0622 2.89519C39.8861 2.76821 39.7351 2.66662 39.6093 2.59043C39.5841 2.59043 39.5086 2.53964 39.3828 2.43806V2.47615L39.3451 2.43806C39.3199 2.41266 39.2948 2.39996 39.2696 2.39996C39.2444 2.37456 39.2193 2.36187 39.1941 2.36187C39.018 2.26028 38.867 2.17139 38.7412 2.09521C38.6908 2.06981 38.6405 2.05711 38.5902 2.05711L38.5524 2.01901L38.477 1.98092C38.4518 1.98092 38.4266 1.98092 38.4015 1.98092C38.4015 1.95552 38.3889 1.94283 38.3637 1.94283C38.3386 1.91743 38.3008 1.89203 38.2505 1.86664C38.2002 1.84124 38.1498 1.82854 38.0995 1.82854C38.0995 1.82854 38.0869 1.82854 38.0618 1.82854C38.0366 1.80315 38.0114 1.77775 37.9863 1.75235C37.9611 1.75235 37.9485 1.75235 37.9485 1.75235H37.9863H38.024C37.7221 1.65077 37.5585 1.59997 37.5333 1.59997C37.483 1.57458 37.4578 1.56188 37.4578 1.56188H37.4956L37.5333 1.59997C37.5333 1.59997 37.5208 1.59997 37.4956 1.59997C37.4704 1.57458 37.4453 1.56188 37.4201 1.56188C37.3949 1.53648 37.3572 1.52378 37.3069 1.52378C37.2565 1.49839 37.2188 1.48569 37.1936 1.48569C37.1936 1.46029 37.1685 1.4476 37.1181 1.4476C37.093 1.4476 37.0678 1.4476 37.0427 1.4476C37.0427 1.4222 37.0301 1.4095 37.0049 1.4095C37.0804 1.4349 37.1181 1.4476 37.1181 1.4476C37.0678 1.4222 37.0175 1.3968 36.9672 1.37141C36.9168 1.37141 36.8791 1.37141 36.8539 1.37141C36.7533 1.32061 36.6778 1.29522 36.6275 1.29522C36.6023 1.29522 36.5646 1.28252 36.5142 1.25712C36.5142 1.25712 36.5017 1.25712 36.4765 1.25712C36.4765 1.25712 36.4765 1.24442 36.4765 1.21903H36.4387C36.5142 1.24442 36.552 1.25712 36.552 1.25712C36.5017 1.25712 36.4262 1.24442 36.3255 1.21903C36.2249 1.16823 36.1368 1.14284 36.0613 1.14284C36.0361 1.11744 35.9984 1.10474 35.9481 1.10474C35.8977 1.07935 35.86 1.06665 35.8348 1.06665C35.8097 1.06665 35.7845 1.06665 35.7593 1.06665C35.7342 1.06665 35.7216 1.05395 35.7216 1.02856C35.7216 1.02856 35.7216 1.04125 35.7216 1.06665C35.4448 0.99046 35.2938 0.952365 35.2687 0.952365C35.017 0.901573 34.7151 0.85078 34.3628 0.799986C34.3628 0.799986 34.3502 0.799986 34.3251 0.799986C34.3251 0.799986 34.3125 0.799986 34.2873 0.799986H34.3251C34.2999 0.77459 34.2747 0.761892 34.2496 0.761892C34.1992 0.761892 34.1238 0.761892 34.0231 0.761892C33.9476 0.736496 33.8092 0.7111 33.6079 0.685704C33.1046 0.63491 32.5888 0.596815 32.0604 0.571419C31.9346 0.571419 31.7207 0.558721 31.4187 0.533325C31.2677 0.533325 31.1671 0.533325 31.1168 0.533325H30.8903C30.3367 0.533325 29.8335 0.558721 29.3805 0.609513C27.6946 0.711099 26.0464 1.02855 24.436 1.56188C23.052 2.01901 21.7184 2.61583 20.4351 3.35233C19.4285 3.91105 18.4724 4.54596 17.5665 5.25706C16.9626 5.73959 16.3964 6.23482 15.868 6.74275C15.8428 6.76815 15.7673 6.76815 15.6415 6.74275C15.5157 6.71735 15.3521 6.66656 15.1508 6.59037C14.7231 6.43799 14.4966 6.32371 14.4714 6.24752C14.6727 6.04435 14.9118 5.82848 15.1886 5.59991C15.9435 4.91421 16.7613 4.2793 17.642 3.69518C18.7995 2.93329 20.0199 2.27298 21.3032 1.71426C22.8885 1.02855 24.4989 0.546023 26.1345 0.266661C27.3423 0.0888871 28.6508 0 30.0599 0C31.1168 0.0253961 32.161 0.114283 33.1927 0.266661C34.7528 0.495229 36.2249 0.863477 37.6088 1.37141C39.3451 2.00632 40.8045 2.78091 41.9872 3.69518C43.3712 4.76183 44.4658 5.98086 45.271 7.35226C46.0762 8.74907 46.592 10.2729 46.8185 11.9236C47.0701 13.549 46.9821 15.1236 46.5543 16.6474C46.1265 18.2473 45.3842 19.6187 44.3274 20.7616C43.2453 21.9298 41.8991 22.6917 40.2887 23.0473C38.5524 23.4536 36.791 23.1996 35.0045 22.2854C34.2244 21.9044 33.6079 21.3965 33.155 20.7616C32.6517 20.0505 32.3372 19.2632 32.2114 18.3997C32.1107 17.5108 32.2114 16.6854 32.5133 15.9236C32.8404 15.1363 33.3437 14.4887 34.0231 13.9807C34.7277 13.4474 35.4826 13.13 36.2878 13.0284C37.093 12.9268 37.9989 13.0538 39.0054 13.4093C40.0874 13.7903 40.88 14.2855 41.3833 14.895C41.8614 15.4791 42.1382 16.1648 42.2137 16.9521C42.2892 17.8664 42.0627 18.5648 41.5343 19.0473C40.9303 19.606 40.2132 19.7965 39.3828 19.6187C38.9047 19.5172 38.4895 19.3775 38.1373 19.1997C37.9108 19.0981 37.7598 18.9838 37.6843 18.8568C37.5585 18.6791 37.4956 18.4505 37.4956 18.1711C37.4956 17.5362 37.7221 16.9521 38.175 16.4188C38.6783 15.8347 39.3325 15.6061 40.1377 15.7331C40.8171 15.8093 41.4714 16.0251 42.1004 16.3807C42.5282 16.6093 42.8805 16.9013 43.1573 17.2569Z" fill="black"/>
<path d="M44.2215 22.0187C44.2215 21.9425 44.3347 21.9425 44.5612 22.0187C44.7625 22.0695 44.9009 22.1076 44.9764 22.133C45.379 22.3108 45.5803 22.4758 45.5803 22.6282C45.5803 22.8314 45.5803 23.1488 45.5803 23.5806C45.5551 23.9869 45.5426 24.2917 45.5426 24.4949C45.5426 27.6186 45.6055 30.1583 45.7313 32.1138C45.8319 33.409 45.9703 34.6407 46.1465 35.809C46.2471 36.5708 46.3478 37.1804 46.4484 37.6375C46.5239 37.9677 46.5994 38.2343 46.6749 38.4375C46.7504 38.5645 46.8133 38.6661 46.8636 38.7422C46.8888 38.7676 46.9139 38.7803 46.9391 38.7803C46.9391 38.8057 46.9517 38.8311 46.9768 38.8565L46.9014 38.8184L46.6371 38.7042C46.6371 38.7042 46.6497 38.7042 46.6749 38.7042C46.7001 38.7042 46.7126 38.7042 46.7126 38.7042C46.8133 38.7042 46.9139 38.6661 47.0146 38.5899C47.1907 38.4883 47.3165 38.3232 47.392 38.0946C47.5179 37.6629 47.4046 37.2439 47.0523 36.8375C46.9265 36.6851 46.763 36.5328 46.5617 36.3804H46.5239L46.4107 36.3042H46.4484C46.3729 36.2788 46.3352 36.2661 46.3352 36.2661H46.2974C46.2723 36.2661 46.2597 36.2534 46.2597 36.228C46.2345 36.228 46.2094 36.228 46.1842 36.228C46.1087 36.2026 46.0584 36.1899 46.0332 36.1899C45.9326 36.1645 45.8445 36.1391 45.769 36.1137C45.5677 36.0883 45.3538 36.0629 45.1274 36.0375C44.297 35.9867 43.3156 36.101 42.1833 36.3804C41.4284 36.5582 40.2835 36.8756 38.7485 37.3327C37.8175 37.6121 36.358 38.0692 34.3702 38.7042C32.3571 39.3645 30.5831 39.9105 29.0482 40.3422C27.4881 40.7994 25.9909 41.1803 24.5566 41.4851C19.222 42.5771 14.5291 42.5771 10.4779 41.4851C8.36419 40.9009 6.40147 40.0375 4.58974 38.8946C2.778 37.7772 1.26822 36.3931 0.0603926 34.7423C-0.0402612 34.6407 -0.0150985 34.5899 0.135881 34.5899C0.21137 34.5899 0.29944 34.6026 0.400091 34.628C0.853026 34.7804 1.15498 34.9455 1.30596 35.1233C1.60792 35.555 1.92245 35.9486 2.24957 36.3042C2.92897 37.0661 3.68386 37.7391 4.51424 38.3232C4.71555 38.4756 4.91685 38.6153 5.11816 38.7422C5.21881 38.793 5.31946 38.8565 5.42011 38.9327C5.44528 38.9581 5.50819 38.9962 5.60884 39.047L5.64658 39.0851C5.87305 39.2121 6.1121 39.3391 6.36373 39.466C6.38889 39.4914 6.42664 39.5168 6.47696 39.5422C6.52729 39.5676 6.55245 39.5803 6.55245 39.5803H6.5902C6.69085 39.6565 6.80408 39.72 6.92989 39.7708C7.78544 40.1771 8.69131 40.52 9.6475 40.7994C10.6037 41.0787 11.6102 41.2819 12.6671 41.4089C16.7435 41.9422 21.7258 41.3708 27.6139 39.6946C28.4694 39.466 30.9228 38.7041 34.9741 37.4089C36.358 36.9772 37.5785 36.6089 38.6353 36.3042C40.0948 35.8724 41.1893 35.5931 41.9191 35.4661C43.1269 35.2883 44.1712 35.2883 45.0519 35.4661C46.4358 35.7455 47.5053 36.3042 48.2602 37.1423C48.6628 37.574 48.8389 38.0184 48.7886 38.4756C48.7383 39.0089 48.474 39.3264 47.9959 39.4279C47.4424 39.5295 46.8007 39.3137 46.071 38.7803C45.618 38.4756 45.3161 38.0311 45.1651 37.447C45.0896 37.1423 44.989 36.5455 44.8632 35.6566C44.7625 35.0217 44.6744 34.3741 44.5989 33.7138C44.4731 32.5201 44.3725 31.2376 44.297 29.8662C44.2215 28.1138 44.1963 25.498 44.2215 22.0187Z" fill="black"/>
<path d="M53.1156 12.2665C53.2163 12.1649 53.3798 12.1776 53.6063 12.3046C53.8579 12.4062 54.0593 12.5458 54.2102 12.7236C54.3864 12.876 54.4493 12.9903 54.399 13.0665C54.2228 13.2188 53.946 13.4728 53.5686 13.8284C53.2163 14.1585 52.9521 14.4125 52.7759 14.5902C52.6753 14.6918 52.4488 14.641 52.0965 14.4379C51.7694 14.2601 51.5681 14.0696 51.4926 13.8664C51.2913 13.2061 51.5178 12.6474 52.172 12.1903C52.7508 11.7331 53.405 11.5935 54.1347 11.7712C54.9903 11.9998 55.72 12.495 56.3239 13.2569C56.7265 13.7903 57.0285 14.4633 57.2298 15.2759C57.5569 16.622 57.6072 18.1203 57.3808 19.7711C56.9027 22.9965 55.5313 25.6758 53.2666 27.8091C53.1408 27.7075 52.9395 27.5551 52.6627 27.3519C52.3859 27.1742 52.1846 27.0472 52.0588 26.971C52.3859 26.8186 52.7004 26.717 53.0024 26.6662C54.3612 26.3869 55.7703 26.6281 57.2298 27.39C58.7144 28.1519 59.8971 29.1805 60.7778 30.4757C61.6836 31.7963 62.2372 33.2693 62.4385 34.8947C62.6398 36.5201 62.6776 38.4248 62.5518 40.6089C62.5518 40.7105 62.5266 41.1295 62.4763 41.866C62.4511 42.6025 62.426 43.0596 62.4008 43.2374C62.4008 43.4152 62.3882 43.8215 62.3631 44.4564C62.3631 45.1167 62.3756 45.5739 62.4008 45.8278C62.426 46.1072 62.4511 46.5262 62.4763 47.085C62.5266 47.6437 62.5895 48.0881 62.665 48.4183C62.7405 48.7738 62.8411 49.1675 62.967 49.5992C63.0928 50.0563 63.2438 50.4881 63.4199 50.8944C63.7219 51.6055 64.0993 52.2404 64.5522 52.7992C64.6026 52.8754 64.678 52.9642 64.7787 53.0658C64.7787 53.0658 64.7913 53.0785 64.8164 53.1039C64.8416 53.1293 64.8542 53.142 64.8542 53.142C64.8793 53.1674 64.8919 53.1928 64.8919 53.2182C65.0429 53.3452 65.1813 53.4722 65.3071 53.5992C65.3323 53.6245 65.37 53.6626 65.4204 53.7134L65.4581 53.7515C65.5839 53.8531 65.6468 53.9039 65.6468 53.9039C65.672 53.9039 65.7097 53.9166 65.7601 53.942C65.8104 53.9928 65.8481 54.0309 65.8733 54.0563C65.8985 54.0817 65.9236 54.1071 65.9488 54.1325C66.1249 54.2341 66.2885 54.3356 66.4395 54.4372H66.5149L66.5904 54.5134C66.6659 54.5388 66.754 54.5769 66.8546 54.6277C66.8798 54.6277 66.905 54.6277 66.9301 54.6277C66.9553 54.6531 66.9805 54.6785 67.0056 54.7039C67.0811 54.7293 67.1692 54.7547 67.2698 54.7801C67.3705 54.8309 67.446 54.8563 67.4963 54.8563L67.534 54.8944C67.5844 54.8944 67.6221 54.8944 67.6473 54.8944C68.377 55.0975 69.069 55.1483 69.7232 55.0467C71.1324 54.869 72.315 54.1706 73.2712 52.9515C74.2274 51.7579 74.5545 50.4754 74.2526 49.104C74.2777 49.0024 74.3532 48.9643 74.479 48.9897C74.63 49.0151 74.7558 49.0532 74.8565 49.104C75.2591 49.3072 75.4856 49.523 75.5359 49.7516C75.6114 50.1071 75.6491 50.45 75.6491 50.7802C75.624 52.177 75.0452 53.396 73.9129 54.4372C72.7805 55.5039 71.4721 56.0245 69.9874 55.9991C68.4525 55.9991 66.9176 55.4404 65.3826 54.3229C64.0238 53.3579 62.9921 52.1389 62.2876 50.6659C61.9353 49.8786 61.6585 49.0786 61.4572 48.2659C61.2559 47.4532 61.1426 46.5008 61.1175 45.4088C61.0923 44.3422 61.0923 43.5422 61.1175 43.0088C61.1426 42.4755 61.193 41.5612 61.2685 40.266C61.3943 37.9804 61.3817 36.1899 61.2307 34.8947C61.0042 32.9392 60.4884 31.3646 59.6832 30.171C59.507 29.917 59.2932 29.6503 59.0415 29.371L58.966 29.2948C58.966 29.2948 58.9535 29.2821 58.9283 29.2567C58.9031 29.2313 58.8906 29.2186 58.8906 29.2186C58.8151 29.1424 58.7522 29.0789 58.7018 29.0281C58.7018 29.0281 58.6767 29.0027 58.6263 28.9519C58.576 28.9265 58.5383 28.9011 58.5131 28.8757C58.5131 28.8503 58.4879 28.8249 58.4376 28.7995L58.3244 28.6853H58.2866C58.2866 28.6599 58.2615 28.6218 58.2111 28.571C58.1608 28.5456 58.0853 28.4948 57.9847 28.4186C57.9847 28.4186 57.9595 28.4059 57.9092 28.3805C57.884 28.3805 57.8715 28.3678 57.8715 28.3424L57.6827 28.2281L57.6072 28.19C57.5821 28.1646 57.5569 28.1519 57.5317 28.1519C57.4311 28.1011 57.3682 28.063 57.343 28.0377C57.2675 28.0123 57.192 27.9742 57.1166 27.9234C57.1166 27.9234 57.0914 27.9107 57.0411 27.8853L56.9656 27.8472C56.7894 27.771 56.6133 27.7075 56.4372 27.6567H56.3239V27.6186C56.2233 27.5932 56.1478 27.5805 56.0975 27.5805C55.7955 27.5043 55.481 27.4662 55.1538 27.4662C54.4744 27.4408 53.8328 27.5678 53.2289 27.8472C53.0527 27.9234 52.7885 27.8345 52.4362 27.5805C52.0336 27.3012 51.8952 27.1107 52.021 27.0091C53.1785 25.917 54.1096 24.6345 54.8141 23.1615C56.1478 20.4187 56.5378 17.6759 55.9842 14.9331C55.8332 14.1966 55.6068 13.5998 55.3048 13.1426C55.2545 13.0411 55.179 12.9395 55.0784 12.8379C55.0532 12.8125 55.0154 12.7871 54.9651 12.7617C54.94 12.7363 54.9274 12.7236 54.9274 12.7236C54.9274 12.6982 54.9148 12.6855 54.8896 12.6855L54.9274 12.7236C54.8771 12.6982 54.8393 12.6728 54.8141 12.6474H54.8519C54.8016 12.6474 54.7638 12.6474 54.7387 12.6474C54.7135 12.6474 54.6757 12.6474 54.6254 12.6474C54.097 12.622 53.6189 12.7998 53.1911 13.1807C52.7634 13.5617 52.6375 14.0061 52.8137 14.5141C52.5117 14.3363 52.084 14.095 51.5304 13.7903C51.7065 13.6125 51.9707 13.3585 52.323 13.0284C52.6753 12.6728 52.9395 12.4189 53.1156 12.2665Z" fill="black"/>
</svg>
